<?xml version="1.0" encoding="utf-8"?>
<!-- Generator: Adobe Illustrator 16.0.0, SVG Export Plug-In . SVG Version: 6.00 Build 0)  -->
<!DOCTYPE svg PUBLIC "-//W3C//DTD SVG 1.1//EN" "http://www.w3.org/Graphics/SVG/1.1/DTD/svg11.dtd">
<svg version="1.1" id="Web" xmlns="http://www.w3.org/2000/svg" xmlns:xlink="http://www.w3.org/1999/xlink" x="0px" y="0px"
	 width="100px" height="100px" viewBox="0 0 100 100" enable-background="new 0 0 100 100" xml:space="preserve">
<g id="web_-_share_network_6_">
	<g>
		<path fill-rule="evenodd" clip-rule="evenodd" fill="#007B9E" d="M76.118,60.165c-2.267,0-4.276,1.082-5.556,2.754l-15.773-7.633
			c0.213-0.669,0.329-1.381,0.329-2.121c0-1.661-0.58-3.184-1.546-4.383l6.784-7.002c0.118,0.079,0.229,0.165,0.354,0.238
			c3.339,1.952,7.625,0.827,9.576-2.51c1.951-3.338,0.828-7.624-2.511-9.576c-3.338-1.952-7.624-0.827-9.575,2.51
			c-0.388,0.663-0.648,1.363-0.801,2.074L46.905,33.11c0.095-2.498-1.152-4.966-3.462-6.316c-3.338-1.952-7.624-0.827-9.575,2.51
			s-0.829,7.624,2.51,9.576s7.625,0.827,9.576-2.51c0.244-0.417,0.44-0.85,0.589-1.291l10.723,1.437
			c0.113,1.438,0.673,2.82,1.613,3.945l-6.753,6.97c-1.136-0.796-2.517-1.266-4.009-1.266c-3.865,0-7,3.133-7,7
			c0,0.553,0.071,1.088,0.192,1.604L30.399,59.62c-1.018-2.607-3.548-4.457-6.517-4.457c-3.865,0-7,3.133-7,7c0,3.865,3.135,7,7,7
			c3.866,0,7-3.135,7-7c0-0.188-0.014-0.374-0.028-0.56l11.186-4.975c1.206,2.111,3.474,3.536,6.078,3.536
			c2.414,0,4.543-1.222,5.802-3.081l15.666,7.58c-0.298,0.777-0.468,1.618-0.468,2.501c0,3.867,3.135,7,7,7c3.866,0,7-3.133,7-7
			S79.984,60.165,76.118,60.165z M44.223,35.358c-1.394,2.384-4.455,3.187-6.838,1.794c-2.385-1.394-3.187-4.456-1.793-6.84
			c1.394-2.385,4.456-3.187,6.84-1.793C44.815,29.912,45.618,32.974,44.223,35.358z M59.924,33.45
			c1.394-2.385,4.456-3.187,6.84-1.793c2.383,1.393,3.186,4.455,1.791,6.839c-1.394,2.384-4.455,3.187-6.838,1.794
			C59.333,38.896,58.531,35.833,59.924,33.45z M23.882,67.161c-2.762,0-5-2.24-5-5.002c0-2.76,2.238-5,5-5s5,2.24,5,5
			C28.882,64.921,26.644,67.161,23.882,67.161z M48.118,58.163c-2.762,0-5-2.24-5-5c0-2.764,2.238-5.002,5-5.002s5,2.239,5,5.002
			C53.118,55.923,50.879,58.163,48.118,58.163z M76.118,72.161c-2.762,0-5-2.238-5-4.998c0-2.762,2.238-5,5-5s5,2.238,5,5
			C81.118,69.923,78.879,72.161,76.118,72.161z"/>
	</g>
</g>
</svg>
