<?xml version="1.0" encoding="utf-8"?>
<!-- Generator: Adobe Illustrator 16.0.0, SVG Export Plug-In . SVG Version: 6.00 Build 0)  -->
<!DOCTYPE svg PUBLIC "-//W3C//DTD SVG 1.1//EN" "http://www.w3.org/Graphics/SVG/1.1/DTD/svg11.dtd">
<svg version="1.1" id="Layer_1" xmlns="http://www.w3.org/2000/svg" xmlns:xlink="http://www.w3.org/1999/xlink" x="0px" y="0px"
	 width="230px" height="230px" viewBox="0 0 230 230" enable-background="new 0 0 230 230" xml:space="preserve">
<g>
	<polygon fill="#8A92B2" points="113.746,42.954 86.311,88.476 113.746,76.006 	"/>
	<polygon fill="#62688F" points="113.746,76.006 86.311,88.476 113.746,104.692 	"/>
	<polygon fill="#62688F" points="141.181,88.476 113.746,42.954 113.746,76.006 	"/>
	<polygon fill="#454A75" points="113.746,104.692 141.181,88.476 113.746,76.006 	"/>
	<polygon fill="#8A92B2" points="86.311,93.678 113.746,132.339 113.746,109.887 	"/>
	<polygon fill="#62688F" points="113.754,109.887 113.754,132.339 141.205,93.678 	"/>
	<g>
		<path fill="#8A92B2" d="M28.947,176.722c0,0.47-0.411,0.821-0.88,0.821H11.701c0.411,4.048,3.461,7.743,7.743,7.743
			c2.933,0,5.103-1.114,6.746-3.461c0.176-0.234,0.411-0.41,0.704-0.41c0.469,0,0.821,0.352,0.821,0.821
			c0,0.176-0.059,0.293-0.117,0.41c-1.643,2.874-4.927,4.282-8.153,4.282c-5.514,0-9.444-4.928-9.444-10.207
			s3.93-10.206,9.444-10.206C24.958,166.516,28.947,171.442,28.947,176.722 M27.187,175.9c-0.352-4.047-3.461-7.742-7.743-7.742
			c-4.282,0-7.333,3.695-7.743,7.742H27.187z"/>
		<path fill="#8A92B2" d="M48.833,166.926c0.469,0,0.821,0.41,0.821,0.821c0,0.47-0.352,0.821-0.821,0.821h-4.399v17.246
			c0,0.41-0.352,0.821-0.821,0.821s-0.821-0.411-0.821-0.821v-17.246h-4.223c-0.47,0-0.821-0.352-0.821-0.821
			c0-0.411,0.352-0.821,0.821-0.821h4.223v-6.335c0-0.47,0.352-0.821,0.821-0.821s0.821,0.352,0.821,0.821v6.335H48.833z"/>
		<path fill="#8A92B2" d="M75.64,175.256v10.44c0,0.47-0.411,0.822-0.821,0.822c-0.469,0-0.821-0.353-0.821-0.822v-10.44
			c0-3.52-1.994-7.04-5.924-7.04c-5.045,0-7.215,4.4-6.922,8.917c0,0.117,0.059,0.646,0.059,0.704v7.859
			c0,0.47-0.352,0.822-0.821,0.822s-0.821-0.353-0.821-0.822v-34.314c0-0.411,0.352-0.821,0.821-0.821s0.821,0.41,0.821,0.821
			v19.416c1.408-2.522,3.93-4.224,6.863-4.224C72.883,166.574,75.64,170.798,75.64,175.256"/>
		<path fill="#8A92B2" d="M105.028,176.722c0,0.47-0.41,0.821-0.879,0.821H87.782c0.411,4.048,3.461,7.743,7.743,7.743
			c2.933,0,5.104-1.114,6.746-3.461c0.176-0.234,0.411-0.41,0.704-0.41c0.469,0,0.821,0.352,0.821,0.821
			c0,0.176-0.059,0.293-0.118,0.41c-1.643,2.874-4.927,4.282-8.153,4.282c-5.514,0-9.444-4.928-9.444-10.207
			s3.931-10.206,9.444-10.206S105.028,171.442,105.028,176.722 M103.269,175.9c-0.352-4.047-3.461-7.742-7.743-7.742
			s-7.333,3.695-7.743,7.742H103.269z"/>
		<path fill="#8A92B2" d="M125.148,167.688c0,0.528-0.294,0.821-0.763,0.88c-4.811,0.704-6.98,4.635-6.98,9.21v7.86
			c0,0.469-0.353,0.82-0.821,0.82c-0.47,0-0.821-0.352-0.821-0.82v-17.892c0-0.469,0.352-0.821,0.821-0.821
			c0.469,0,0.821,0.353,0.821,0.821v3.637c1.349-2.288,4.047-4.458,6.863-4.458C124.679,166.926,125.148,167.22,125.148,167.688"/>
		<path fill="#8A92B2" d="M152.073,176.722c0,0.47-0.411,0.821-0.88,0.821h-16.366c0.411,4.048,3.461,7.743,7.743,7.743
			c2.934,0,5.104-1.114,6.746-3.461c0.176-0.234,0.41-0.41,0.704-0.41c0.469,0,0.821,0.352,0.821,0.821
			c0,0.176-0.059,0.293-0.118,0.41c-1.642,2.874-4.927,4.282-8.153,4.282c-5.514,0-9.443-4.928-9.443-10.207
			s3.93-10.206,9.443-10.206S152.073,171.442,152.073,176.722 M150.313,175.9c-0.353-4.047-3.461-7.742-7.743-7.742
			s-7.332,3.695-7.743,7.742H150.313z"/>
		<path fill="#8A92B2" d="M178.528,167.864v5.69v12.26c0,0.469-0.41,0.821-0.821,0.821c-0.469,0-0.821-0.353-0.821-0.821v-3.402
			c-1.349,2.698-3.754,4.634-6.805,4.634c-4.868,0-7.566-4.224-7.566-8.682v-10.5c0-0.41,0.352-0.821,0.821-0.821
			c0.469,0,0.821,0.411,0.821,0.821v10.5c0,3.52,1.994,7.039,5.924,7.039c5.515,0,6.805-5.162,6.805-10.852v-6.688
			c0-0.41,0.353-0.821,0.821-0.821C178.118,167.043,178.528,167.454,178.528,167.864"/>
		<path fill="#8A92B2" d="M220,175.197v10.5c0,0.469-0.41,0.821-0.821,0.821c-0.469,0-0.821-0.353-0.821-0.821v-10.5
			c0-3.52-1.994-6.98-5.925-6.98c-4.927,0-6.804,5.279-6.804,9.385v8.096c0,0.469-0.411,0.821-0.821,0.821
			c-0.47,0-0.821-0.353-0.821-0.821v-10.5c0-3.52-1.995-6.98-5.925-6.98c-4.986,0-7.039,3.93-6.863,9.15
			c0,0.117,0.059,0.353,0,0.411v7.919c0,0.469-0.352,0.821-0.821,0.821c-0.469,0-0.821-0.353-0.821-0.821v-17.95
			c0-0.469,0.353-0.821,0.821-0.821c0.47,0,0.821,0.353,0.821,0.821v2.992c1.408-2.522,3.931-4.165,6.863-4.165
			c3.344,0,5.925,2.111,6.98,5.221c1.349-3.051,3.989-5.221,7.391-5.221C217.243,166.574,220,170.739,220,175.197"/>
	</g>
</g>
</svg>
