<?xml version="1.0" encoding="utf-8"?>
<!-- Generator: Adobe Illustrator 16.0.0, SVG Export Plug-In . SVG Version: 6.00 Build 0)  -->
<!DOCTYPE svg PUBLIC "-//W3C//DTD SVG 1.1//EN" "http://www.w3.org/Graphics/SVG/1.1/DTD/svg11.dtd">
<svg version="1.1" id="Layer_1" xmlns="http://www.w3.org/2000/svg" xmlns:xlink="http://www.w3.org/1999/xlink" x="0px" y="0px"
	 width="650px" height="190px" viewBox="0 0 650 190" enable-background="new 0 0 650 190" xml:space="preserve">
<g id="positive">
	<g>
		<path fill="#58595B" d="M315.747,0.689c18.021,0,29.501,7.806,29.501,20.089c0,8.493-5.28,15.266-13.777,17.677
			c10.103,1.952,16.531,9.872,16.531,20.317c0,13.661-11.939,22.27-30.879,22.27H277.75V0.689H315.747z M298.068,32.831h16.53
			c5.969,0,9.757-3.215,9.757-8.381c0-5.165-3.788-8.149-9.757-8.149h-16.53V32.831z M298.068,65.315h16.53
			c7.576,0,12.283-3.328,12.283-9.068c0-5.395-4.707-8.723-12.283-8.723h-16.53V65.315z"/>
		<path fill="#58595B" d="M393.686,17.104v63.938h-20.433V17.104H349.26V0.574h68.645v16.53H393.686z"/>
		<path fill="#58595B" d="M494.352,13.546L482.527,27.55c-5.279-6.428-13.086-10.445-20.203-10.445
			c-12.742,0-22.385,10.101-22.385,23.303c0,13.43,9.643,23.646,22.385,23.646c6.773,0,14.58-3.674,20.203-9.413l11.939,12.627
			c-8.609,8.84-21.352,14.693-33.175,14.693c-24.22,0-42.241-17.793-42.241-41.324C419.051,17.449,437.529,0,461.981,0
			C473.918,0,486.316,5.28,494.352,13.546z"/>
	</g>
	<g>
		<path fill="#58595B" d="M314.253,168.048h-0.573h-15.497v22.614H277.75v-80.354h35.93c21.236,0,33.404,10.102,33.404,28.009
			c0,12.282-5.165,21.122-14.578,25.828l16.875,26.517h-23.189L314.253,168.048z M313.68,151.978
			c8.838,0,14.003-4.477,14.003-12.972c0-8.379-5.166-12.627-14.003-12.627h-15.497v25.599H313.68z"/>
		<path fill="#58595B" d="M381.287,126.379v15.956h38.34v16.07h-38.34v16.187h43.735v16.07h-64.167v-80.354h62.903v16.07H381.287z"
			/>
		<path fill="#58595B" d="M492.745,173.558v17.104h-54.524v-80.354h20.431v63.249H492.745z"/>
		<path fill="#58595B" d="M522.932,175.854l-5.854,14.809H496.07l34.668-80.354h21.005l33.864,80.354h-21.81l-5.74-14.809H522.932z
			 M540.609,130.627L528.9,160.356h23.187L540.609,130.627z"/>
		<path fill="#58595B" d="M620.843,190.662h-20.317v-25.369l-29.731-54.984h20.433l19.399,35.011l18.941-35.011H650l-29.157,54.411
			V190.662z"/>
	</g>
	<g id="Red_1_">
		<linearGradient id="stem2_1_" gradientUnits="userSpaceOnUse" x1="118.9888" y1="130.6504" x2="238.0503" y2="130.6504">
			<stop  offset="0" style="stop-color:#FF1363"/>
			<stop  offset="1" style="stop-color:#990C3B"/>
		</linearGradient>
		<path id="stem2_3_" fill="url(#stem2_1_)" d="M119.349,71.29l-0.36,47.961l0.042,0.015c52.398-5.316,99.072,25.481,119.02,70.746
			C237.879,124.502,184.896,71.298,119.349,71.29z"/>
		<linearGradient id="stem2_4_" gradientUnits="userSpaceOnUse" x1="178.5107" y1="190.2568" x2="178.5107" y2="118.748">
			<stop  offset="0" style="stop-color:#FF1363"/>
			<stop  offset="1" style="stop-color:#990C3B"/>
		</linearGradient>
		<path id="stem2_2_" fill="url(#stem2_4_)" d="M238.014,189.947c-18.646-42.311-61.022-72.186-108.91-71.175
			c-3.359,0.07-6.162,0.177-9.557,0.464l-0.548,0.02c39.123,0.034,70.943,31.874,70.948,71.001l48.076-0.001
			C238.022,190.152,238.016,190.05,238.014,189.947z"/>
	</g>
	<g id="Blue_1_">
		<linearGradient id="stem1_1_" gradientUnits="userSpaceOnUse" x1="152.6719" y1="123.3125" x2="157.9681" y2="80.1784">
			<stop  offset="0" style="stop-color:#215170"/>
			<stop  offset="1" style="stop-color:#3481B0"/>
		</linearGradient>
		<path id="stem1_5_" fill="url(#stem1_1_)" d="M166.642,81.243c-12.19,16.345-28.493,29.554-47.536,37.946l-0.217-0.048
			c0.022,0.011,0.044,0.021,0.065,0.03l0.665,0.082c2.381-0.174,5.526-0.381,7.829-0.41c23.531-1.702,45.189-10.243,62.974-23.676
			C183.106,89.649,175.127,84.974,166.642,81.243z"/>
		<linearGradient id="stem1_2_" gradientUnits="userSpaceOnUse" x1="119.0005" y1="40.8369" x2="190.481" y2="40.8369">
			<stop  offset="0" style="stop-color:#0099CC"/>
			<stop  offset="1" style="stop-color:#006780"/>
		</linearGradient>
		<path id="stem1_4_" fill="url(#stem1_2_)" d="M166.717,81.343c0.024,0.011,0.046,0.023,0.071,0.033
			c0.011,0.006,0.02,0.01,0.033,0.014c16.8-22.511,25.78-50.98,23.232-81.105L190,0.291c-0.035,39.121-31.804,70.982-70.931,70.986
			L119,71.317c16.966,0.006,33.095,3.604,47.717,10.029C166.717,81.345,166.717,81.343,166.717,81.343z"/>
		<linearGradient id="stem1_6_" gradientUnits="userSpaceOnUse" x1="166.8271" y1="47.8398" x2="238.1489" y2="47.8398">
			<stop  offset="0" style="stop-color:#0099CC"/>
			<stop  offset="1" style="stop-color:#006780"/>
		</linearGradient>
		<path id="stem1_3_" fill="url(#stem1_6_)" d="M238.149,0.443c0-0.022-0.001-0.044-0.001-0.068h-48.105
			c2.526,30.087-6.444,58.521-23.215,81.009h0.003c0,0,0-0.003,0.001-0.003c0.022,0.009,0.046,0.022,0.07,0.034
			c0.011,0.005,0.024,0.007,0.035,0.015h-0.001c8.445,3.722,16.392,8.381,23.676,13.875c28.75-21.721,47.383-56.151,47.447-94.861
			H238.149z"/>
		<linearGradient id="straight_2_" gradientUnits="userSpaceOnUse" x1="83.4116" y1="119.2812" x2="83.4116" y2="71.2705">
			<stop  offset="0" style="stop-color:#215170"/>
			<stop  offset="1" style="stop-color:#3481B0"/>
		</linearGradient>
		<path id="straight_1_" fill="url(#straight_2_)" d="M166.824,81.367c-14.545-6.41-30.598-10.01-47.475-10.063V71.29h-0.275v-0.019
			c-0.018,0-0.037-0.001-0.054-0.001l0.002,0.02H0v0.004v47.981h119.312l0.001,0.006c0.005-0.001,0.01-0.005,0.014-0.006h0.023
			v-0.004v-0.007C138.365,110.877,154.647,97.686,166.824,81.367z"/>
	</g>
</g>
</svg>
