<?xml version="1.0" encoding="utf-8"?>
<!-- Generator: Adobe Illustrator 16.0.0, SVG Export Plug-In . SVG Version: 6.00 Build 0)  -->
<!DOCTYPE svg PUBLIC "-//W3C//DTD SVG 1.1//EN" "http://www.w3.org/Graphics/SVG/1.1/DTD/svg11.dtd">
<svg version="1.1" id="Layer_1" xmlns="http://www.w3.org/2000/svg" xmlns:xlink="http://www.w3.org/1999/xlink" x="0px" y="0px"
	 width="230px" height="230px" viewBox="0 0 230 230" enable-background="new 0 0 230 230" xml:space="preserve">
<g>
	<g id="main-Logo_1_">
		<circle fill="#445BA8" cx="109.913" cy="148.769" r="0.154"/>
		<circle fill="#445BA8" cx="104.21" cy="147.073" r="0.462"/>
		<circle fill="#445BA8" cx="98.969" cy="144.761" r="0.617"/>
		<circle fill="#445BA8" cx="93.882" cy="141.832" r="0.771"/>
		<circle fill="#445BA8" cx="89.104" cy="138.44" r="1.08"/>
		<circle fill="#445BA8" cx="84.633" cy="134.586" r="1.233"/>
		<circle fill="#445BA8" cx="80.625" cy="130.271" r="1.386"/>
		<circle fill="#445BA8" cx="77.234" cy="125.493" r="1.541"/>
		<circle fill="#445BA8" cx="74.459" cy="120.405" r="1.85"/>
		<circle fill="#445BA8" cx="72.301" cy="115.011" r="2.004"/>
		<circle fill="#445BA8" cx="70.759" cy="109.307" r="2.158"/>
		<circle fill="#445BA8" cx="70.144" cy="103.449" r="2.467"/>
		<circle fill="#445BA8" cx="70.297" cy="97.747" r="2.62"/>
		<circle fill="#445BA8" cx="71.068" cy="91.889" r="2.774"/>
		<circle fill="#445BA8" cx="153.074" cy="135.203" r="0.155"/>
		<circle fill="#445BA8" cx="147.834" cy="137.979" r="0.309"/>
		<circle fill="#445BA8" cx="142.438" cy="140.137" r="0.463"/>
		<circle fill="#445BA8" cx="136.735" cy="141.677" r="0.77"/>
		<circle fill="#445BA8" cx="131.031" cy="142.757" r="0.926"/>
		<circle fill="#445BA8" cx="125.175" cy="143.065" r="1.08"/>
		<circle fill="#445BA8" cx="119.317" cy="142.757" r="1.233"/>
		<circle fill="#445BA8" cx="113.458" cy="141.987" r="1.387"/>
		<circle fill="#445BA8" cx="107.909" cy="140.29" r="1.541"/>
		<circle fill="#445BA8" cx="102.514" cy="137.979" r="1.85"/>
		<circle fill="#445BA8" cx="97.428" cy="135.051" r="2.004"/>
		<circle fill="#445BA8" cx="92.957" cy="131.35" r="2.158"/>
		<circle fill="#445BA8" cx="88.795" cy="127.189" r="2.313"/>
		<circle fill="#445BA8" cx="85.403" cy="122.409" r="2.467"/>
		<circle fill="#445BA8" cx="82.476" cy="117.322" r="2.62"/>
		<circle fill="#445BA8" cx="173.885" cy="95.28" r="0.154"/>
		<circle fill="#445BA8" cx="172.19" cy="100.829" r="0.308"/>
		<circle fill="#445BA8" cx="169.876" cy="106.225" r="0.463"/>
		<circle fill="#445BA8" cx="167.102" cy="111.311" r="0.615"/>
		<circle fill="#445BA8" cx="163.71" cy="116.09" r="0.771"/>
		<circle fill="#445BA8" cx="159.703" cy="120.405" r="0.925"/>
		<circle fill="#445BA8" cx="155.387" cy="124.413" r="1.079"/>
		<circle fill="#445BA8" cx="150.763" cy="127.805" r="1.233"/>
		<circle fill="#445BA8" cx="145.675" cy="130.733" r="1.388"/>
		<circle fill="#445BA8" cx="140.126" cy="132.891" r="1.542"/>
		<circle fill="#445BA8" cx="134.575" cy="134.278" r="1.695"/>
		<circle fill="#445BA8" cx="128.72" cy="134.897" r="1.85"/>
		<circle fill="#445BA8" cx="122.861" cy="134.895" r="2.004"/>
		<circle fill="#445BA8" cx="117.005" cy="133.97" r="2.159"/>
		<circle fill="#445BA8" cx="111.455" cy="132.429" r="2.465"/>
		<circle fill="#445BA8" cx="106.06" cy="129.962" r="2.621"/>
		<circle fill="#445BA8" cx="160.474" cy="52.118" r="0.155"/>
		<circle fill="#445BA8" cx="163.249" cy="57.359" r="0.308"/>
		<circle fill="#445BA8" cx="165.405" cy="62.754" r="0.463"/>
		<circle fill="#445BA8" cx="166.947" cy="68.304" r="0.617"/>
		<circle fill="#445BA8" cx="167.872" cy="74.162" r="0.77"/>
		<path fill="#445BA8" d="M168.183,79.094c0.509,0,0.923,0.414,0.923,0.924c0,0.511-0.414,0.925-0.923,0.925
			c-0.513,0-0.926-0.414-0.926-0.925C167.257,79.508,167.67,79.094,168.183,79.094z"/>
		<circle fill="#445BA8" cx="168.026" cy="85.876" r="1.08"/>
		<circle fill="#445BA8" cx="167.102" cy="91.58" r="1.233"/>
		<circle fill="#445BA8" cx="165.562" cy="97.284" r="1.388"/>
		<circle fill="#445BA8" cx="163.249" cy="102.525" r="1.541"/>
		<circle fill="#445BA8" cx="160.166" cy="107.611" r="1.695"/>
		<circle fill="#445BA8" cx="156.466" cy="112.236" r="1.85"/>
		<circle fill="#445BA8" cx="152.304" cy="116.243" r="2.004"/>
		<circle fill="#445BA8" cx="147.679" cy="119.789" r="2.159"/>
		<circle fill="#445BA8" cx="142.438" cy="122.564" r="2.466"/>
		<circle fill="#445BA8" cx="137.043" cy="124.721" r="2.62"/>
		<circle fill="#445BA8" cx="120.396" cy="31.154" r="0.154"/>
		<circle fill="#445BA8" cx="125.944" cy="32.85" r="0.309"/>
		<circle fill="#445BA8" cx="131.341" cy="35.163" r="0.463"/>
		<circle fill="#445BA8" cx="136.427" cy="38.09" r="0.617"/>
		<circle fill="#445BA8" cx="141.205" cy="41.483" r="0.771"/>
		<circle fill="#445BA8" cx="145.675" cy="45.336" r="0.925"/>
		<circle fill="#445BA8" cx="149.529" cy="49.652" r="1.079"/>
		<circle fill="#445BA8" cx="153.074" cy="54.431" r="1.233"/>
		<circle fill="#445BA8" cx="155.851" cy="59.518" r="1.386"/>
		<circle fill="#445BA8" cx="158.008" cy="64.913" r="1.541"/>
		<circle fill="#445BA8" cx="159.395" cy="70.616" r="1.695"/>
		<ellipse fill="#445BA8" cx="160.166" cy="76.474" rx="1.85" ry="1.85"/>
		<circle fill="#445BA8" cx="160.012" cy="82.331" r="2.004"/>
		<circle fill="#445BA8" cx="159.086" cy="88.035" r="2.159"/>
		<circle fill="#445BA8" cx="157.545" cy="93.739" r="2.467"/>
		<circle fill="#445BA8" cx="155.233" cy="98.979" r="2.621"/>
		<circle fill="#445BA8" cx="77.234" cy="44.72" r="0.155"/>
		<circle fill="#445BA8" cx="82.476" cy="41.945" r="0.309"/>
		<circle fill="#445BA8" cx="87.87" cy="39.787" r="0.462"/>
		<circle fill="#445BA8" cx="93.574" cy="38.246" r="0.616"/>
		<circle fill="#445BA8" cx="99.277" cy="37.166" r="0.771"/>
		<circle fill="#445BA8" cx="105.135" cy="36.858" r="0.925"/>
		<circle fill="#445BA8" cx="110.993" cy="37.166" r="1.079"/>
		<circle fill="#445BA8" cx="116.85" cy="37.937" r="1.233"/>
		<circle fill="#445BA8" cx="122.399" cy="39.632" r="1.387"/>
		<circle fill="#445BA8" cx="127.794" cy="41.944" r="1.541"/>
		<circle fill="#445BA8" cx="132.728" cy="44.873" r="1.696"/>
		<circle fill="#445BA8" cx="137.351" cy="48.573" r="1.85"/>
		<circle fill="#445BA8" cx="141.358" cy="52.735" r="2.004"/>
		<circle fill="#445BA8" cx="144.905" cy="57.514" r="2.158"/>
		<circle fill="#445BA8" cx="147.679" cy="62.6" r="2.466"/>
		<circle fill="#445BA8" cx="149.838" cy="67.996" r="2.62"/>
		<circle fill="#445BA8" cx="151.225" cy="73.699" r="2.774"/>
		<circle fill="#445BA8" cx="56.27" cy="84.644" r="0.309"/>
		<circle fill="#445BA8" cx="58.119" cy="79.094" r="0.617"/>
		<circle fill="#445BA8" cx="60.431" cy="73.699" r="0.925"/>
		<circle fill="#445BA8" cx="63.206" cy="68.612" r="1.234"/>
		<circle fill="#445BA8" cx="66.598" cy="63.833" r="1.541"/>
		<circle fill="#445BA8" cx="70.451" cy="59.518" r="1.85"/>
		<circle fill="#445BA8" cx="74.767" cy="55.509" r="2.159"/>
		<circle fill="#445BA8" cx="79.546" cy="52.118" r="2.467"/>
		<circle fill="#445BA8" cx="84.633" cy="49.189" r="2.774"/>
		<path fill="#445BA8" d="M90.028,49.961c1.541,0,2.774-1.08,2.929-2.621c0.616,0.925,1.541,1.387,2.775,1.387
			c1.233,0,2.312-0.771,2.928-1.849c0.618,0.925,1.696,1.387,2.929,1.387c1.079,0,2.006-0.462,2.621-1.232
			c0.772,0.924,1.849,1.696,3.238,1.696c0.77,0,1.541-0.308,2.158-0.771c0.154,0.308,0.309,0.464,0.463,0.618
			c-0.925,0.154-1.85,0.462-2.621,1.232c-0.77-0.617-1.695-1.079-2.776-1.079c-1.387,0-2.62,0.616-3.391,1.696
			c-0.615-0.462-1.541-0.772-2.465-0.772c-1.541,0-2.929,0.925-3.544,2.313c-0.618-0.463-1.387-0.617-2.159-0.617
			c-1.695,0-3.236,1.232-3.699,2.929c-0.463-0.308-1.079-0.463-1.85-0.463c-2.004,0-3.545,1.541-3.545,3.544l0,0
			c-0.463-0.308-1.079-0.462-1.696-0.462c-1.849,0-3.237,1.387-3.237,3.237c0,0.308,0,0.616,0.154,0.924
			c-0.461-0.308-0.924-0.462-1.541-0.462c-1.695,0-3.082,1.387-3.082,3.083s1.387,3.083,3.082,3.083s3.083-1.387,3.083-3.083
			c0-0.308,0-0.463-0.154-0.771c0.462,0.308,1.079,0.463,1.85,0.463c1.695,0,3.237-1.388,3.237-3.083
			c0.617,0.308,1.233,0.616,1.849,0.616h0.154c-0.77,0.616-1.232,1.541-1.232,2.62c-0.155,0-0.463,0-0.771,0
			c-2.157,0-3.854,1.695-3.854,3.853c0,0.155,0,0.308,0,0.464c-0.154,0-0.308,0-0.463,0c-2.004,0-3.699,1.695-3.699,3.699
			c0,0.463,0,0.771,0.154,1.08h-0.154c-1.85,0-3.391,1.542-3.391,3.392c0,0.616,0.154,1.232,0.462,1.849c0,0,0,0-0.153,0
			c-1.85,0-3.238,1.388-3.238,3.237c0,0.923,0.463,1.695,1.079,2.312h-0.154c-1.695,0-3.083,1.387-3.083,3.083
			c0,1.695,1.387,3.083,3.083,3.083c1.696,0,3.083-1.388,3.083-3.083c0-0.771-0.308-1.541-0.925-2.158h0.155
			c0.924,0,1.849-0.463,2.312-1.079c0,0,0,0,0,0.155c0,0.77,0.308,1.541,0.77,2.158c-1.387,0.463-2.312,1.851-2.312,3.392
			c0,1.079,0.462,2.004,1.233,2.774c-1.233,0.463-2.004,1.696-2.004,3.083c0,1.233,0.771,2.467,1.848,2.929
			c-1.079,0.463-1.694,1.542-1.694,2.93c0,1.541,1.079,2.774,2.466,3.083c-0.924,0.463-1.694,1.541-1.694,2.62
			c0,1.696,1.387,3.083,3.083,3.083c0.154,0,0.308,0,0.615,0c-1.079,0.308-2.004,1.387-2.004,2.773c0,1.543,1.235,2.775,2.775,2.775
			s2.775-1.232,2.775-2.775c0-1.54-1.234-2.773-2.775-2.773c-0.154,0-0.309,0-0.464,0c1.234-0.309,2.159-1.542,2.159-2.929v-0.155
			c0.462,0.463,1.08,0.925,1.849,1.08c-0.463,0.616-0.77,1.387-0.77,2.158c0,1.851,1.541,3.393,3.391,3.393l0,0
			c-0.308,0.461-0.617,1.231-0.617,1.849c0,1.695,1.389,3.236,3.237,3.236c0.309,0,0.617,0,0.925-0.155
			c-0.308,0.464-0.463,1.08-0.463,1.695c0,1.697,1.389,3.083,3.084,3.083c0.77,0,1.387-0.308,1.849-0.615
			c-0.463,0.462-0.771,1.079-0.771,1.849c0,1.542,1.233,2.929,2.929,2.929c1.542,0,2.929-1.233,2.929-2.929
			c0-0.771-0.308-1.387-0.77-2.004c0.462,0,0.77,0,1.079-0.153l0,0c0,1.386,0.77,2.467,1.85,3.083c-0.155,0-0.309,0-0.463,0
			c-1.542,0-2.775,1.231-2.775,2.774c0,1.542,1.233,2.775,2.775,2.775c1.541,0,2.774-1.233,2.774-2.775
			c0-1.079-0.616-1.849-1.387-2.312c0.309,0,0.617,0.154,0.771,0.154c0.616,0,1.386-0.154,1.85-0.462
			c0.154,1.695,1.541,3.084,3.391,3.084c0.925,0,1.849-0.464,2.466-1.079c0.309,1.54,1.542,2.619,3.084,2.619
			c1.233,0,2.312-0.616,2.773-1.696c0.31,1.389,1.542,2.468,2.93,2.468c1.54,0,2.774-1.233,2.929-2.775
			c0.154,1.54,1.386,2.619,2.775,2.619c1.54,0,2.929-1.231,2.929-2.929c0-1.539-1.235-2.773-2.777-2.927
			c0.311-0.309,0.464-0.616,0.618-0.926c0.616,0.617,1.542,1.079,2.465,1.079c0.31,0,0.773,0,1.081-0.153
			c-0.771,0.463-1.232,1.388-1.232,2.312c0,1.541,1.232,2.774,2.774,2.774c1.541,0,2.775-1.232,2.775-2.774
			s-1.234-2.775-2.775-2.775c-0.31,0-0.464,0-0.771,0.155c0.771-0.463,1.388-1.232,1.541-2.159c0.616,0.463,1.388,0.771,2.158,0.771
			c1.851,0,3.393-1.54,3.393-3.391l0,0c0.463,0.308,1.232,0.616,1.849,0.616c1.695,0,3.236-1.387,3.236-3.235
			c0-0.31,0-0.617-0.153-0.926c0.461,0.309,1.078,0.462,1.695,0.462c1.695,0,3.083-1.386,3.083-3.083
			c0-0.771-0.31-1.387-0.617-1.848c0.463,0.461,1.081,0.771,1.851,0.771c1.54,0,2.929-1.234,2.929-2.929
			c0-1.542-1.234-2.928-2.929-2.928c-0.771,0-1.543,0.308-2.004,0.771c0-0.464,0-0.771-0.155-1.079l0,0
			c1.388,0,2.467-0.772,3.084-1.851c0,0.156,0,0.309,0,0.464c0,1.541,1.23,2.775,2.775,2.775c1.539,0,2.773-1.233,2.773-2.775
			c0-1.542-1.233-2.775-2.773-2.775c-1.081,0-1.851,0.616-2.313,1.388c0-0.31,0.153-0.618,0.153-0.772
			c0-0.616-0.153-1.387-0.461-1.849c1.695-0.154,3.083-1.542,3.083-3.391c0-0.925-0.462-1.85-1.079-2.467
			c1.541-0.309,2.619-1.541,2.619-3.083c0-1.232-0.616-2.312-1.694-2.775c1.387-0.308,2.466-1.541,2.466-2.929
			c0-1.542-1.233-2.776-2.773-2.929c1.539-0.155,2.619-1.388,2.619-2.928c0-1.542-1.233-2.929-2.929-2.929
			c-1.541,0-2.929,1.232-2.929,2.929c0,1.541,1.078,2.62,2.621,2.775c-1.543,0.154-2.775,1.387-2.775,3.083
			c0,1.079,0.617,2.158,1.54,2.62c-1.54,0.309-2.619,1.541-2.619,3.083c0,0.924,0.308,1.695,0.923,2.312
			c-1.694,0.154-2.927,1.695-2.927,3.391c0,0.616,0.154,1.233,0.464,1.695c-1.851,0.155-3.393,1.696-3.393,3.545
			c0,0.308,0,0.771,0.153,1.079h-0.153c-2.005,0-3.698,1.696-3.698,3.7c0,0.154,0,0.154,0,0.308c-0.156,0-0.311,0-0.618,0
			c-2.003,0-3.544,1.388-3.854,3.237c-0.308-0.153-0.615-0.153-1.078-0.153c-1.541,0-2.928,0.924-3.545,2.312
			c-0.771-0.618-1.851-0.926-2.93-0.771c-1.231,0.153-2.157,1.079-2.465,2.004c-0.771-0.771-1.85-1.232-3.085-1.079
			c-1.079,0.154-2.157,0.926-2.619,1.849c-0.616-0.771-1.541-1.232-2.775-1.387c-1.079,0-2.003,0.464-2.62,1.079
			c-0.463-0.925-1.232-1.694-2.158-1.851c-1.079-0.308-2.159-0.153-3.083,0.464c-0.155-1.079-0.925-1.849-1.85-2.468
			c-0.925-0.461-2.004-0.461-2.929,0c0-0.923-0.462-2.002-1.387-2.619c-0.771-0.617-1.85-0.924-2.775-0.771
			c0.154-0.925,0-2.004-0.616-2.929c-0.617-0.925-1.696-1.387-2.775-1.387c0.463-0.925,0.463-2.004-0.153-3.083
			c-0.464-0.926-1.233-1.542-2.158-1.696c0.617-0.771,0.77-1.695,0.617-2.775c-0.155-1.079-0.771-2.003-1.696-2.466
			c0.925-0.617,1.388-1.696,1.388-2.775c0-1.08-0.463-2.004-1.233-2.621c0.924-0.462,1.542-1.234,1.849-2.312
			c0.308-1.079,0-2.004-0.462-2.929c0.924-0.154,1.696-0.77,2.312-1.695c0.464-0.925,0.616-2.004,0.309-2.929
			c1.079,0,2.004-0.308,2.774-1.233c0.771-0.771,1.079-1.85,0.925-2.929c0.925,0.309,2.004,0,2.775-0.463
			c0.925-0.616,1.387-1.542,1.541-2.62c0.925,0.463,2.006,0.616,2.929,0.154c0.925-0.461,1.542-1.079,2.004-2.004
			c0.771,0.617,1.696,0.925,2.775,0.925l0,0c1.079-0.154,2.004-0.77,2.621-1.694c0.616,0.77,1.541,1.387,2.62,1.541
			c1.079,0,2.004-0.309,2.775-0.925c0.308,0.925,1.079,1.695,2.159,2.004c1.079,0.309,2.158,0.154,3.083-0.462
			c0.153,1.079,0.77,1.849,1.849,2.466l0,0c0.771,0.463,1.694,0.463,2.467,0.309c0.154,0.155,0.154,0.308,0.308,0.308
			c0,0.772,0.309,1.542,0.924,2.159l0,0c1.85,1.849,6.012,6.475,5.242,12.485c-0.155,1.542,0.616,2.312,1.695,1.08
			c6.629-7.091,5.55-15.877,5.396-16.956c0-0.616-0.155-1.233-0.463-1.85c0-0.308,0.153-0.771,0.153-1.08
			c0-1.848-0.923-3.391-2.312-4.47c0-0.307,0.156-0.616,0.156-1.079c0-2.312-1.389-4.162-3.393-5.087
			c0-2.62-2.004-4.624-4.316-5.088c-0.462-2.312-2.465-4.006-4.778-4.006c-0.154,0-0.154,0-0.308,0
			c-0.618-1.85-2.312-3.238-4.472-3.238c-0.462,0-0.771,0-1.231,0.155c-0.772-1.541-2.313-2.621-4.008-2.621
			c-0.772,0-1.389,0.156-2.004,0.463c-0.464-1.387-1.85-2.312-3.393-2.312c-0.925,0-1.849,0.308-2.62,0.925
			c-0.771-0.925-1.85-1.696-3.237-1.696c-1.233,0-2.313,0.618-3.083,1.541c-0.617-0.771-1.696-1.387-2.775-1.387
			c-1.388,0-2.774,0.925-3.237,2.158c-0.618-0.771-1.542-1.233-2.468-1.233c-1.695,0-3.083,1.233-3.237,2.929
			c-0.617-0.771-1.386-1.233-2.312-1.233c-1.695,0-3.083,1.387-3.083,2.928C87.1,48.573,88.333,49.961,90.028,49.961z"/>
		<circle fill="#445BA8" cx="69.835" cy="127.805" r="0.309"/>
		<circle fill="#445BA8" cx="67.06" cy="122.718" r="0.463"/>
		<circle fill="#445BA8" cx="64.902" cy="117.168" r="0.771"/>
		<circle fill="#445BA8" cx="63.36" cy="111.619" r="0.924"/>
		<circle fill="#445BA8" cx="62.436" cy="105.761" r="1.234"/>
		<circle fill="#445BA8" cx="61.974" cy="99.903" r="1.387"/>
		<circle fill="#445BA8" cx="62.281" cy="94.046" r="1.695"/>
		<circle fill="#445BA8" cx="63.206" cy="88.343" r="1.849"/>
		<circle fill="#445BA8" cx="64.749" cy="82.64" r="2.159"/>
		<circle fill="#445BA8" cx="67.06" cy="77.399" r="2.312"/>
		<circle fill="#445BA8" cx="70.144" cy="72.311" r="2.621"/>
		<circle fill="#445BA8" cx="73.689" cy="67.687" r="2.774"/>
	</g>
	<g id="Logo_1_">
		<path fill="#455BA9" d="M29.757,177.133c0,1.078,0.154,2.158,0.616,3.083c0.462,0.923,0.925,1.848,1.695,2.468
			c0.771,0.77,1.542,1.23,2.467,1.693c0.925,0.464,2.004,0.617,3.083,0.617c1.079,0,2.158-0.155,3.237-0.617
			c0.925-0.463,1.848-1.078,2.62-1.85c0.155-0.154,0.309-0.308,0.616-0.308c0.308,0,0.463,0,0.771,0.155
			c0.155,0.154,0.309,0.462,0.309,0.771c0,0.308-0.154,0.616-0.309,0.77c-0.925,0.926-2.004,1.697-3.237,2.312
			c-1.233,0.617-2.62,0.772-4.008,0.772c-1.387,0-2.619-0.31-3.854-0.772c-1.232-0.462-2.158-1.231-3.082-2.158
			c-0.925-0.924-1.542-2.004-2.158-3.083c-0.309-1.232-0.617-2.467-0.617-3.854s0.308-2.62,0.77-3.853
			c0.462-1.233,1.233-2.312,2.159-3.084c0.925-0.924,1.849-1.541,3.083-2.159c1.233-0.462,2.466-0.77,3.853-0.77
			c1.389,0,2.621,0.308,3.854,0.77c1.233,0.464,2.312,1.233,3.237,2.159c0.155,0.154,0.309,0.309,0.309,0.616
			c0.154,0.308,0,0.464-0.154,0.771c-0.155,0.308-0.463,0.308-0.771,0.463c-0.309,0-0.617-0.155-0.771-0.31
			c-0.772-0.615-1.542-1.232-2.62-1.694c-0.925-0.463-2.005-0.771-3.237-0.771c-1.079,0-2.159,0.153-3.083,0.615
			c-0.925,0.463-1.85,0.925-2.468,1.696c-0.769,0.771-1.233,1.541-1.694,2.619C30.064,174.975,29.757,176.054,29.757,177.133z"/>
		<path fill="#455BA9" d="M49.179,177.133c0-1.389,0.309-2.622,0.77-3.854c0.462-1.232,1.234-2.312,2.158-3.082
			c0.925-0.926,1.85-1.541,3.084-2.159c1.233-0.463,2.467-0.771,3.853-0.771c1.389,0,2.621,0.308,3.854,0.771
			c1.233,0.462,2.312,1.233,3.083,2.159c0.925,0.924,1.541,2.003,2.157,3.082c0.464,1.232,0.771,2.468,0.771,3.854
			s-0.309,2.619-0.771,3.854c-0.462,1.233-1.232,2.158-2.157,3.083c-0.925,0.925-2.004,1.541-3.083,2.158
			c-1.233,0.463-2.465,0.771-3.854,0.771c-1.386,0-2.62-0.308-3.853-0.771c-1.234-0.462-2.159-1.233-3.084-2.158
			c-0.924-0.925-1.541-1.85-2.158-3.083C49.487,179.752,49.179,178.52,49.179,177.133z M51.184,177.133
			c0,1.078,0.154,2.158,0.616,3.083c0.462,0.923,0.925,1.848,1.694,2.468c0.771,0.77,1.542,1.23,2.467,1.693
			c0.925,0.464,2.004,0.617,3.083,0.617s2.158-0.155,3.083-0.617c0.925-0.463,1.849-0.924,2.466-1.693
			c0.77-0.773,1.233-1.543,1.695-2.468s0.616-2.005,0.616-3.083c0-1.079-0.154-2.158-0.616-3.084
			c-0.462-0.924-0.925-1.85-1.695-2.467c-0.771-0.771-1.541-1.232-2.466-1.696c-0.925-0.461-2.004-0.615-3.083-0.615
			s-2.159,0.154-3.083,0.615c-0.924,0.464-1.849,0.926-2.467,1.696c-0.769,0.771-1.233,1.541-1.694,2.467
			C51.338,174.975,51.184,176.054,51.184,177.133z"/>
		<path fill="#455BA9" d="M86.328,174.357c0-0.771-0.154-1.389-0.462-2.004c-0.31-0.617-0.618-1.233-1.08-1.696
			s-1.079-0.925-1.695-1.079c-0.616-0.308-1.387-0.463-2.004-0.463c-0.771,0-1.387,0.155-2.004,0.463
			c-0.616,0.308-1.233,0.616-1.695,1.079c-0.463,0.463-0.925,1.079-1.079,1.696c-0.462,0.615-0.617,1.387-0.617,2.004v11.715
			c0,0.31-0.155,0.463-0.309,0.617c-0.154,0.154-0.463,0.308-0.617,0.308c-0.308,0-0.462-0.153-0.616-0.308
			c-0.155-0.155-0.31-0.464-0.31-0.617v-11.715c0-0.925,0.155-1.85,0.617-2.775c0.308-0.925,0.925-1.696,1.542-2.312
			c0.617-0.617,1.388-1.233,2.312-1.541c0.925-0.309,1.85-0.616,2.774-0.616c0.925,0,1.85,0.154,2.774,0.616
			c0.925,0.308,1.696,0.924,2.313,1.541c0.615,0.615,1.232,1.387,1.541,2.312c0.309,0.926,0.617,1.849,0.617,2.775v11.715
			c0,0.31-0.154,0.463-0.309,0.617c-0.154,0.154-0.462,0.308-0.616,0.308c-0.309,0-0.462-0.153-0.617-0.308
			c-0.155-0.155-0.309-0.464-0.309-0.617v-11.715H86.328z"/>
		<path fill="#455BA9" d="M104.981,171.892c0-0.308-0.155-0.771-0.464-1.08c-0.308-0.308-0.617-0.615-1.079-0.924
			c-0.463-0.308-0.925-0.463-1.542-0.617s-1.079-0.154-1.695-0.154c-0.617,0-1.232,0-1.85,0.154
			c-0.616,0.155-1.079,0.31-1.541,0.617c-0.463,0.309-0.771,0.616-0.925,0.924c-0.153,0.463-0.153,0.925-0.153,1.234
			c0,0.462,0.153,0.77,0.462,1.079c0.309,0.308,0.771,0.615,1.234,0.924s0.925,0.462,1.542,0.616c0.462,0.153,1.078,0.31,1.541,0.31
			c0.925,0.154,1.85,0.308,2.621,0.615c0.771,0.309,1.541,0.771,2.158,1.233c0.617,0.463,1.079,1.078,1.388,1.85
			c0.308,0.616,0.461,1.388,0.461,2.312c0,0.771-0.154,1.541-0.616,2.312c-0.309,0.771-0.924,1.387-1.542,1.848
			c-0.617,0.464-1.387,0.926-2.158,1.235c-0.771,0.306-1.695,0.462-2.774,0.462c-1.078,0-1.849-0.156-2.774-0.462
			c-0.772-0.31-1.542-0.773-2.159-1.235c-0.617-0.615-1.079-1.231-1.542-1.848c-0.309-0.771-0.617-1.541-0.617-2.312
			c0-0.308,0.155-0.462,0.31-0.616c0.154-0.154,0.462-0.308,0.617-0.308c0.308,0,0.462,0.153,0.616,0.308s0.309,0.309,0.309,0.616
			c0,0.616,0.154,1.079,0.462,1.697c0.31,0.462,0.617,0.923,1.08,1.387c0.462,0.308,1.079,0.615,1.696,0.923
			c0.615,0.155,1.232,0.31,2.003,0.31c0.771,0,1.388-0.156,2.004-0.31c0.617-0.154,1.232-0.462,1.695-0.923
			c0.461-0.308,0.924-0.771,1.079-1.387c0.309-0.464,0.309-1.081,0.309-1.697c0-0.462-0.154-1.08-0.463-1.542
			c-0.308-0.462-0.616-0.925-1.078-1.232c-0.463-0.309-0.925-0.616-1.542-0.924c-0.617-0.309-1.234-0.463-1.85-0.463
			c-0.925,0-1.696-0.153-2.466-0.464c-0.771-0.308-1.542-0.615-2.159-1.079c-0.617-0.463-1.079-0.924-1.387-1.54
			c-0.308-0.617-0.617-1.232-0.617-1.851c0-0.615,0.155-1.386,0.463-1.848c0.309-0.617,0.771-1.079,1.387-1.543
			c0.617-0.462,1.233-0.77,2.158-1.078c0.771-0.308,1.696-0.308,2.622-0.308c0.924,0,1.694,0.154,2.62,0.308
			c0.771,0.309,1.541,0.616,2.158,1.078c0.617,0.464,1.079,0.926,1.387,1.543c0.31,0.615,0.463,1.232,0.463,1.848
			c0,0.308-0.154,0.464-0.309,0.618c-0.155,0.153-0.462,0.308-0.616,0.308c-0.31,0-0.463-0.154-0.617-0.308
			C104.981,172.508,104.981,172.199,104.981,171.892z"/>
		<path fill="#455BA9" d="M112.38,168.191c0-0.308,0.154-0.462,0.308-0.616c0.154-0.154,0.462-0.308,0.617-0.308h10.943
			c0.308,0,0.463,0.154,0.617,0.308c0.154,0.154,0.308,0.462,0.308,0.616c0,0.308-0.153,0.464-0.308,0.615
			c-0.154,0.156-0.464,0.31-0.617,0.31h-10.019v6.938h7.089c0.31,0,0.464,0.154,0.618,0.308c0.153,0.154,0.308,0.462,0.308,0.616
			c0,0.309-0.154,0.462-0.308,0.616c-0.156,0.154-0.464,0.308-0.618,0.308h-7.089v7.092h10.019c0.308,0,0.463,0.153,0.617,0.308
			c0.154,0.155,0.308,0.464,0.308,0.617c0,0.308-0.153,0.464-0.308,0.616c-0.154,0.153-0.464,0.31-0.617,0.31h-10.943
			c-0.31,0-0.463-0.156-0.617-0.31c-0.154-0.154-0.308-0.462-0.308-0.616V168.191z"/>
		<path fill="#455BA9" d="M141.975,174.357c0-0.771-0.154-1.389-0.462-2.004c-0.308-0.617-0.617-1.233-1.079-1.696
			c-0.463-0.463-1.078-0.925-1.696-1.079c-0.615-0.308-1.387-0.463-2.003-0.463c-0.771,0-1.388,0.155-2.005,0.463
			c-0.615,0.308-1.232,0.616-1.694,1.079c-0.463,0.463-0.925,1.079-1.081,1.696c-0.306,0.615-0.461,1.387-0.461,2.004v11.715
			c0,0.31-0.154,0.463-0.309,0.617c-0.155,0.154-0.463,0.308-0.617,0.308c-0.308,0-0.463-0.153-0.616-0.308
			c-0.154-0.155-0.309-0.464-0.309-0.617v-11.715c0-0.925,0.156-1.85,0.617-2.775c0.308-0.925,0.925-1.696,1.541-2.312
			c0.617-0.617,1.387-1.233,2.312-1.541c0.925-0.309,1.851-0.616,2.775-0.616s1.85,0.154,2.775,0.616
			c0.925,0.308,1.694,0.924,2.312,1.541c0.617,0.615,1.233,1.387,1.542,2.312c0.308,0.926,0.615,1.849,0.615,2.775v11.715
			c0,0.31-0.153,0.463-0.308,0.617s-0.463,0.308-0.616,0.308c-0.309,0-0.462-0.153-0.616-0.308c-0.155-0.155-0.31-0.464-0.31-0.617
			v-11.715H141.975z"/>
		<path fill="#455BA9" d="M160.628,171.892c0-0.308-0.154-0.771-0.462-1.08c-0.31-0.308-0.617-0.615-1.08-0.924
			c-0.462-0.308-0.924-0.463-1.541-0.617c-0.616-0.154-1.079-0.154-1.694-0.154c-0.617,0-1.235,0-1.851,0.154
			c-0.617,0.155-1.079,0.31-1.541,0.617c-0.463,0.309-0.771,0.616-0.925,0.924c-0.308,0.309-0.308,0.772-0.308,1.234
			s0.154,0.77,0.462,1.079c0.308,0.308,0.617,0.615,1.232,0.924c0.463,0.309,0.925,0.462,1.543,0.616
			c0.462,0.153,1.079,0.31,1.54,0.31c0.925,0.154,1.849,0.308,2.62,0.615c0.771,0.309,1.542,0.771,2.157,1.233
			c0.617,0.462,1.081,1.078,1.389,1.85c0.309,0.616,0.463,1.388,0.463,2.312c0,0.771-0.154,1.541-0.463,2.312
			c-0.308,0.771-0.925,1.387-1.541,1.848c-0.617,0.462-1.388,0.926-2.157,1.235c-0.773,0.306-1.696,0.462-2.776,0.462
			c-0.924,0-1.85-0.156-2.774-0.462c-0.771-0.31-1.542-0.773-2.158-1.235c-0.617-0.615-1.08-1.231-1.541-1.848
			c-0.309-0.771-0.618-1.541-0.618-2.312c0-0.308,0.156-0.462,0.31-0.616c0.154-0.154,0.309-0.308,0.616-0.308
			c0.309,0,0.463,0.153,0.616,0.308c0.154,0.154,0.308,0.309,0.308,0.616c0,0.616,0.154,1.079,0.464,1.697
			c0.308,0.462,0.616,0.923,1.079,1.387c0.463,0.308,1.078,0.615,1.694,0.923c0.617,0.155,1.235,0.31,2.005,0.31
			c0.771,0,1.388-0.156,2.003-0.31c0.618-0.152,1.235-0.462,1.696-0.923c0.463-0.308,0.925-0.771,1.081-1.387
			c0.308-0.464,0.308-1.081,0.308-1.697c0-0.462-0.155-1.08-0.464-1.542c-0.308-0.462-0.616-0.925-1.078-1.232
			c-0.464-0.309-0.925-0.616-1.543-0.924c-0.615-0.309-1.231-0.463-1.848-0.463c-0.925,0-1.696-0.153-2.468-0.464
			c-0.771-0.308-1.54-0.615-2.158-1.079c-0.617-0.463-1.079-0.924-1.387-1.54c-0.309-0.617-0.463-1.232-0.463-1.851
			c0-0.615,0.154-1.386,0.463-1.848c0.308-0.617,0.77-1.079,1.387-1.543c0.618-0.462,1.233-0.77,2.158-1.078
			c0.771-0.308,1.696-0.308,2.621-0.308s1.694,0.154,2.62,0.308c0.771,0.309,1.542,0.616,2.159,1.078
			c0.615,0.464,1.079,0.926,1.387,1.543c0.309,0.615,0.463,1.232,0.463,1.848c0,0.308-0.154,0.464-0.309,0.618
			c-0.153,0.153-0.462,0.308-0.615,0.308c-0.154,0-0.464-0.154-0.618-0.308C160.628,172.508,160.628,172.199,160.628,171.892z"/>
		<path fill="#455BA9" d="M174.655,179.289l-8.17-10.482c-0.154-0.153-0.308-0.463-0.154-0.771c0-0.307,0.154-0.462,0.309-0.614
			c0.153-0.154,0.462-0.31,0.77-0.154c0.31,0,0.463,0.154,0.617,0.307l7.707,9.866l7.863-9.866c0.153-0.154,0.308-0.307,0.615-0.307
			c0.309,0,0.464,0,0.771,0.154c0.154,0.153,0.308,0.308,0.308,0.614c0,0.309,0,0.464-0.153,0.771l-8.324,10.482v6.783
			c0,0.31-0.155,0.463-0.31,0.617s-0.461,0.308-0.615,0.308c-0.308,0-0.463-0.153-0.617-0.308c-0.154-0.155-0.308-0.464-0.308-0.617
			v-6.783H174.655z"/>
		<path fill="#455BA9" d="M200.09,171.892c0-0.308-0.155-0.771-0.463-1.08c-0.309-0.308-0.615-0.615-1.079-0.924
			c-0.463-0.308-0.925-0.463-1.541-0.617c-0.617-0.154-1.08-0.154-1.695-0.154c-0.617,0-1.233,0-1.851,0.154
			c-0.616,0.155-1.078,0.31-1.54,0.617c-0.464,0.309-0.771,0.616-0.926,0.924c-0.308,0.309-0.308,0.772-0.308,1.234
			s0.154,0.77,0.462,1.079c0.31,0.308,0.617,0.615,1.234,0.924c0.461,0.309,0.925,0.462,1.541,0.616
			c0.463,0.153,1.079,0.31,1.541,0.31c0.924,0.154,1.85,0.308,2.621,0.615c0.77,0.309,1.54,0.771,2.157,1.233
			s1.079,1.078,1.387,1.85c0.31,0.616,0.464,1.388,0.464,2.312c0,0.771-0.154,1.541-0.615,2.312
			c-0.311,0.771-0.926,1.387-1.543,1.848c-0.616,0.464-1.387,0.926-2.158,1.235c-0.771,0.306-1.696,0.462-2.774,0.462
			c-0.926,0-1.849-0.156-2.775-0.462c-0.771-0.31-1.541-0.773-2.158-1.235c-0.617-0.615-1.078-1.231-1.542-1.848
			c-0.308-0.771-0.462-1.541-0.462-2.312c0-0.308,0.154-0.462,0.308-0.616c0.154-0.154,0.31-0.308,0.618-0.308
			c0.307,0,0.461,0.153,0.616,0.308c0.154,0.154,0.306,0.309,0.306,0.616c0,0.616,0.156,1.079,0.464,1.697
			c0.308,0.462,0.617,0.923,1.079,1.387c0.464,0.308,1.079,0.615,1.696,0.923c0.617,0.155,1.232,0.31,2.004,0.31
			c0.771,0,1.387-0.156,2.004-0.31c0.617-0.154,1.233-0.462,1.695-0.923c0.462-0.308,0.924-0.771,1.08-1.387
			c0.308-0.464,0.308-1.081,0.308-1.697c0-0.462-0.154-1.08-0.464-1.542c-0.308-0.462-0.615-0.925-1.078-1.232
			c-0.464-0.309-0.924-0.616-1.541-0.924c-0.617-0.309-1.233-0.463-1.849-0.463c-0.925,0-1.696-0.153-2.468-0.464
			c-0.77-0.308-1.54-0.615-2.159-1.079c-0.615-0.463-1.077-0.924-1.387-1.54c-0.307-0.617-0.615-1.232-0.615-1.851
			c0-0.615,0.154-1.386,0.462-1.848c0.308-0.617,0.771-1.079,1.387-1.543c0.617-0.462,1.234-0.77,2.159-1.078
			c0.771-0.308,1.696-0.308,2.621-0.308c0.924,0,1.694,0.154,2.62,0.308c0.771,0.309,1.54,0.616,2.004,1.078
			c0.615,0.464,1.079,0.926,1.387,1.543c0.308,0.615,0.464,1.232,0.464,1.848c0,0.308-0.156,0.464-0.308,0.618
			c-0.156,0.153-0.464,0.308-0.618,0.308c-0.308,0-0.462-0.154-0.617-0.308C200.09,172.508,200.09,172.199,200.09,171.892z"/>
	</g>
</g>
</svg>
