<?xml version="1.0" encoding="utf-8"?>
<!-- Generator: Adobe Illustrator 16.0.0, SVG Export Plug-In . SVG Version: 6.00 Build 0)  -->
<!DOCTYPE svg PUBLIC "-//W3C//DTD SVG 1.1//EN" "http://www.w3.org/Graphics/SVG/1.1/DTD/svg11.dtd">
<svg version="1.1" id="Web" xmlns="http://www.w3.org/2000/svg" xmlns:xlink="http://www.w3.org/1999/xlink" x="0px" y="0px"
	 width="100px" height="100px" viewBox="-25 -25 100 100" enable-background="new -25 -25 100 100" xml:space="preserve">
<g id="web_-_browse_internet_network">
	<g>
		<path fill="#007B9E" d="M49.975,24C49.45,10.657,38.473-0.001,25-0.001C11.528-0.001,0.551,10.657,0.026,24H0v2h0.025
			C0.55,39.312,11.481,49.949,24.914,49.995c0.029,0.001,0.058,0.006,0.087,0.006s0.058-0.005,0.087-0.006
			C38.52,49.949,49.451,39.312,49.975,26H50v-2H49.975z M42.816,10.505c-1.746,0.702-5.314,1.977-9.875,2.78
			c-0.918-4.8-2.379-8.676-4.162-10.971C34.427,3.247,39.359,6.251,42.816,10.505z M18.019,26h13.963
			c-0.045,3.104-0.299,5.93-0.687,8.465c-1.962-0.277-4.062-0.46-6.261-0.46c-2.223,0-4.347,0.187-6.33,0.468
			C18.318,31.936,18.063,29.105,18.019,26z M18.019,24c0.045-3.104,0.299-5.931,0.687-8.467C20.689,15.815,22.813,16,25.036,16
			c2.198,0,4.299-0.182,6.261-0.459c0.389,2.534,0.641,5.359,0.686,8.459H18.019z M25,2.003c1.973,0,4.552,4.304,5.96,11.591
			C29.105,13.842,27.128,14,25.068,14c-2.107,0-4.128-0.165-6.024-0.421C20.452,6.301,23.028,2.003,25,2.003z M21.222,2.313
			c-1.781,2.292-3.241,6.162-4.16,10.955c-4.555-0.805-8.127-2.07-9.875-2.767C10.646,6.25,15.576,3.247,21.222,2.313z
			 M6.052,12.022c0.379,0.174,4.623,2.077,10.674,3.188c-0.417,2.717-0.668,5.678-0.712,8.789H2.046
			C2.237,19.562,3.698,15.462,6.052,12.022z M16.014,26c0.044,3.111,0.295,6.075,0.712,8.794C10.695,35.9,6.459,37.795,6.056,37.98
			C3.7,34.54,2.237,30.438,2.046,26H16.014z M7.192,39.501c1.749-0.696,5.319-1.961,9.871-2.765
			c0.917,4.787,2.375,8.654,4.153,10.947C15.575,46.749,10.648,43.748,7.192,39.501z M25,48.001c-1.972,0-4.548-4.298-5.957-11.575
			c1.896-0.256,3.917-0.421,6.024-0.421c2.061,0,4.037,0.158,5.893,0.406C29.552,43.697,26.973,48.001,25,48.001z M28.785,47.684
			c1.779-2.295,3.238-6.168,4.156-10.964c4.557,0.802,8.123,2.075,9.869,2.777C39.355,43.747,34.427,46.749,28.785,47.684z
			 M43.945,37.979c-0.403-0.187-4.637-2.088-10.67-3.193c0.416-2.717,0.668-5.676,0.711-8.785h13.969
			C47.764,30.438,46.301,34.54,43.945,37.979z M33.986,24c-0.043-3.107-0.295-6.065-0.711-8.781
			c6.056-1.11,10.298-3.021,10.674-3.197c2.354,3.439,3.814,7.54,4.007,11.978H33.986z"/>
	</g>
</g>
</svg>
