<?xml version="1.0" encoding="utf-8"?>
<!-- Generator: Adobe Illustrator 16.0.0, SVG Export Plug-In . SVG Version: 6.00 Build 0)  -->
<!DOCTYPE svg PUBLIC "-//W3C//DTD SVG 1.1//EN" "http://www.w3.org/Graphics/SVG/1.1/DTD/svg11.dtd">
<svg version="1.1" id="E-Commerce" xmlns="http://www.w3.org/2000/svg" xmlns:xlink="http://www.w3.org/1999/xlink" x="0px" y="0px"
	 width="100px" height="100px" viewBox="-25 -25 100 100" enable-background="new -25 -25 100 100" xml:space="preserve">
<g id="ecommerce_-_wallet_money_cash_finance">
	<g>
		<path fill="#007B9E" d="M44.934,11.999H44V3.124C44,1.397,42.594,0,40.857,0L4,12c0,0-0.048,0.096-0.124,0.247
			C2.774,12.727,2,13.853,2,15.166v31.708c0,0.58,0.17,1.117,0.447,1.582c0.03,0.053,0.054,0.108,0.086,0.158
			c0.015,0.021,0.034,0.04,0.049,0.062c0.557,0.799,1.46,1.323,2.486,1.323h39.866c1.692,0,3.065-1.418,3.065-3.167V15.166
			C48,13.416,46.627,11.999,44.934,11.999z M40.418,1.999C41.292,1.999,42,2.702,42,3.57v8.429H9.141L40.418,1.999z M46,35.997H36
			v-6.002h10V35.997z M46,27.999H34v10h12v8.399c0,0.886-0.688,1.601-1.538,1.601H5.54c-0.85,0-1.539-0.715-1.539-1.601V15.599
			c0-0.884,0.689-1.6,1.539-1.6h38.923c0.852,0,1.538,0.716,1.538,1.6L46,27.999L46,27.999z"/>
	</g>
</g>
</svg>
